inDegrees=no
num_controls=7
num_derivatives=13
num_iterations=155
num_multipliers=7
num_parameters=0
num_slacks=7
num_states=26
objective=5.268534
objective_accelerations=0.590393
objective_balance=0.047530
objective_effort=0.563892
objective_height=3.996388
objective_ligament=0.070331
solver_duration=1686.879879
status=Solve_Succeeded
success=true
DataType=double
version=3
OpenSimVersion=4.4-2022-07-23-0e9fedc
endheader
time	/jointset/ground_pelvis/pelvis_tilt/value	/jointset/ground_pelvis/pelvis_tx/value	/jointset/ground_pelvis/pelvis_ty/value	/jointset/hip_l/hip_flexion_l/value	/jointset/hip_l/hip_adduction_l/value	/jointset/hip_l/hip_rotation_l/value	/jointset/back/lumbar_extension/value	/jointset/patellofemoral_l/patellar_flexion_l/value	/jointset/knee_l/knee_flexion_l/value	/jointset/knee_l/knee_adduction_l/value	/jointset/knee_l/knee_rotation_l/value	/jointset/ankle_l/ankle_angle_l/value	/jointset/subtalar_l/subtalar_angle_l/value	/jointset/ground_pelvis/pelvis_tilt/speed	/jointset/ground_pelvis/pelvis_tx/speed	/jointset/ground_pelvis/pelvis_ty/speed	/jointset/hip_l/hip_flexion_l/speed	/jointset/hip_l/hip_adduction_l/speed	/jointset/hip_l/hip_rotation_l/speed	/jointset/back/lumbar_extension/speed	/jointset/patellofemoral_l/patellar_flexion_l/speed	/jointset/knee_l/knee_flexion_l/speed	/jointset/knee_l/knee_adduction_l/speed	/jointset/knee_l/knee_rotation_l/speed	/jointset/ankle_l/ankle_angle_l/speed	/jointset/subtalar_l/subtalar_angle_l/speed	/forceset/tau_hip_flexion_l	/forceset/tau_hip_adduction_l	/forceset/tau_hip_rotation_l	/forceset/tau_knee_flexion_l	/forceset/tau_ankle_angle_l	/forceset/tau_subtalar_angle_l	/forceset/tau_lumbar_extension	lambda_cid13_p0	lambda_cid13_p1	lambda_cid13_p2	lambda_cid13_p3	lambda_cid13_p4	lambda_cid13_p5	lambda_cid14_p0	/jointset/ground_pelvis/pelvis_tilt/accel	/jointset/ground_pelvis/pelvis_tx/accel	/jointset/ground_pelvis/pelvis_ty/accel	/jointset/hip_l/hip_flexion_l/accel	/jointset/hip_l/hip_adduction_l/accel	/jointset/hip_l/hip_rotation_l/accel	/jointset/back/lumbar_extension/accel	/jointset/patellofemoral_l/patellar_flexion_l/accel	/jointset/knee_l/knee_flexion_l/accel	/jointset/knee_l/knee_adduction_l/accel	/jointset/knee_l/knee_rotation_l/accel	/jointset/ankle_l/ankle_angle_l/accel	/jointset/subtalar_l/subtalar_angle_l/accel	gamma_cid13_p0	gamma_cid13_p1	gamma_cid13_p2	gamma_cid13_p3	gamma_cid13_p4	gamma_cid13_p5	gamma_cid14_p0
0.5	-0.1066533320055946	-0.04269982662850938	0.7736758410109473	1.049330473464385	-0.3232227170648624	-0.05545687281942654	-0.8022413648867204	1.069301769917835	1.069301769917827	-0.05840169665550815	-0.1745223923692357	0.2047689266015462	0.04200148897015234	-0.1386793106850366	-0.1332821478808195	-0.5533867123734761	1.905505991059301	-0.0109174261282774	0.5795185574777572	-0.8216114052606164	2.169509673579353	2.169509673579343	0.2718583981123626	4.48958118537412e-05	0.553030930008136	0.1989975784060004	-0.2838936922181507	0.01422410761598778	-0.007749896741536936	-0.2757817316599705	0.07264987816883132	0.04711046050748272	0.3372365670715919	-19.87887877561225	-17.95914107534272	3.527941904925031	-11.44504055612901	-697.8059681784068	-76.14072118792514	-4.106852350323506	0.4749067286207466	0.7953228176655025	-0.3075133515628036	-1.707586594065071	0.2877551769843883	-0.7185708684385387	2.10829808793934	-1.718541448399075	-1.718541448399087	-0.1601484025450951	0.004050845790507237	-0.5940624101824983	0.2769814338454903	-2.972597803330937e-07	-5.162808727309517e-07	1.743364508816269e-06	1.126869018874139e-07	-3.567787823733115e-07	-3.98524544057005e-08	-2.725525077268135e-07
0.51	-0.1080161773948011	-0.04399290336442609	0.7681278885204583	1.068297415712497	-0.3233184245777544	-0.04969730943019392	-0.8103513267576983	1.09090767124125	1.090907671241253	-0.05569331092328456	-0.1745223648337748	0.2102683045641882	0.04400375873782322	-0.133866485855534	-0.1253354362005658	-0.5560731351786832	1.887621530888417	-0.008246521219441635	0.5723860431605989	-0.8003070766435134	2.151368781115778	2.151368781115774	0.2697557338741363	-2.505501262047999e-05	0.5467603012720582	0.2014003154578092	-0.2905499078837648	0.01392159966995064	-0.007517751168782181	-0.2813086468961805	0.07151410706034969	0.04680541505305847	0.3440312331035819	-20.59753389569318	-17.58674105261901	3.338255471692683	-11.22573280421192	-703.7039270140782	-76.18334457032944	-3.461241068262839	0.4879427361255747	0.7940132832467885	-0.2296641676997206	-1.868040041203369	0.2532856120727528	-0.7120173124257025	2.152584092379386	-1.907091511719328	-1.907091511718259	-0.2448910090046162	-0.01015751818358107	-0.6562449812596043	0.213493353894027	-1.980845733200277e-07	-7.638468519454113e-07	8.369996840497432e-07	-2.045128811520495e-08	-2.430353824817673e-07	-1.906268498642197e-07	-1.946738473987351e-07
0.52	-0.1093302000605121	-0.04520657939553208	0.7625569803173773	1.087077680496381	-0.3233881175487104	-0.04400935630394432	-0.8182460285737483	1.112323117966754	1.112323117966767	-0.05300786494835381	-0.1745225647008803	0.2157024398642818	0.04602837057862131	-0.1289147659856031	-0.1174020069186772	-0.5579778548918815	1.868170498213403	-0.00571451774102409	0.5651965048805935	-0.7785593942750606	2.131418753996903	2.131418753996907	0.2672704466541838	-5.84701780713041e-07	0.5399823974984118	0.2034659930314366	-0.297206123549366	0.01361909172392028	-0.007285605596113738	-0.2868355621323893	0.07037833595186967	0.04650036959864567	0.350825899135582	-21.31618978924909	-17.21799207775525	3.153322333702165	-11.06960719797867	-709.6234214535569	-76.27254302935111	-2.871120557149929	0.5026857367064715	0.7926663379923983	-0.1511727331610363	-2.020901094890901	0.2599748909007552	-0.7299756610079856	2.196968838209343	-2.080368379458764	-2.080368379458772	-0.2366729988902926	0.02293507285333259	-0.6955174176963244	0.2095695382091982	-1.465256216358124e-07	-9.125134271135635e-07	3.294631431803675e-07	-9.687486558840057e-08	-1.784081793575983e-07	-3.026424657489707e-07	-1.52275250581204e-07
0.53	-0.1105940466378578	-0.04634113284605537	0.7569709167723772	1.105655941075042	-0.323432952523992	-0.03839515021569143	-0.8259212515900322	1.133530285605562	1.133530285605577	-0.05034738452829126	-0.1745226513263585	0.2210663665128748	0.04807226648944331	-0.1238330255836324	-0.1095247863315845	-0.5591051905297814	1.847243199174618	-0.003270716207983367	0.557598101598506	-0.7564348417512223	2.109731869435242	2.109731869435231	0.2648088711371249	-1.671306792590761e-05	0.5327205720932718	0.2052606453194177	-0.3037536621057483	0.01366764691590764	-0.007089187845402856	-0.2919527051942205	0.06847072582191975	0.04593983822742367	0.3573465637960636	-22.29068669229107	-16.68099276335874	2.927290823283052	-10.51852144776949	-715.3194889017901	-76.03623437397222	-2.336230597264329	0.5141355720238109	0.7828070437722722	-0.07409333489083528	-2.164418312724589	0.2339097187007439	-0.7818966011008081	2.227753544107407	-2.255258142877759	-2.255258142880001	-0.2535713865008588	-0.013884094126545	-0.7539162000786717	0.1566827425213695	-1.148137058388972e-07	-9.362196991079812e-07	8.422852370191591e-08	-1.307343835678388e-07	-1.387421012081462e-07	-3.370692916477399e-07	-1.261337509549801e-07
0.54	-0.1118064323351687	-0.04739740266576691	0.7513774639998407	1.124017773862445	-0.3234538840971035	-0.03285835294812094	-0.8333737180641501	1.154512102469082	1.154512102469098	-0.0477120541750756	-0.1745228986960483	0.2263551946877849	0.0501325628568309	-0.1186225899783962	-0.1017452807563265	-0.5594557003991255	1.824884939961745	-0.0009338373071398249	0.5497147407447512	-0.7340080858419253	2.086348598939265	2.086348598939239	0.2622404332845787	-3.273354519284188e-05	0.5249627027618973	0.206746084344551	-0.3103012006621229	0.01371620210788846	-0.006892770094646422	-0.2970698482560507	0.06656311569196663	0.04537930685619114	0.3638672284565528	-23.26755983776123	-16.146671510423	2.705220218332471	-10.0143020744166	-721.0573671608392	-75.83310465503264	-1.856582294647956	0.5284247773596308	0.7731233356254025	0.00419242055011723	-2.307093129708552	0.2385903644613455	-0.7869671753414383	2.25740951530112	-2.419645566321624	-2.419645566321624	-0.2580454659877224	0.0229566506290201	-0.7947262029433236	0.1477268856396409	-1.050602127258037e-07	-8.216720186548614e-07	1.292002853368304e-07	-1.17501750618013e-07	-1.266925868605089e-07	-2.856532009662728e-07	-1.179788269446709e-07
0.55	-0.112966174293475	-0.0483763973945849	0.7457843967570317	1.142149032777267	-0.3234519227465575	-0.0274016219413789	-0.8406004943044737	1.175251800004064	1.175251800004083	-0.04510292953096116	-0.1745231133231953	0.2315641458181905	0.0522062704927581	-0.1133112808863897	-0.09407259808794827	-0.5590263272018647	1.801134592647285	0.001307267306612009	0.5415739456329914	-0.7113098972037816	2.061320955606802	2.06132095560678	0.2595785218450068	-1.545294366451331e-05	0.5167603044260036	0.207945306056584	-0.3164451257166851	0.01353793373342625	-0.006710975477828893	-0.3024425480512579	0.06490801770281619	0.04479425963487366	0.370030219308425	-24.16089489632009	-15.61534613693549	2.482503705065133	-9.51966133695881	-726.6768875713497	-75.67913345978914	-1.432372708877436	0.5346512044608639	0.7614787134123611	0.08199888938867482	-2.44385409468435	0.21407286809448	-0.8363781318837211	2.281613290985498	-2.584793878106936	-2.584793878106418	-0.2712812801471413	-0.009656636584672531	-0.8431146656780441	0.09860263949289058	-1.027944234212101e-07	-6.993560681147865e-07	2.401088548229412e-07	-9.561998597467049e-08	-1.216205896904578e-07	-2.083167412764811e-07	-1.17814467364406e-07
0.5600000000000001	-0.1140723697149944	-0.04927923770052552	0.7401995610702101	1.160035818506472	-0.3234281098782209	-0.02202804737631645	-0.8475991707078329	1.195733127073441	1.195733127073464	-0.04252062746068071	-0.1745233092246231	0.2366890493618836	0.05429048691090721	-0.107913282620788	-0.08651439618085215	-0.557809389201611	1.775990302838039	0.003436466250861797	0.5330834524096124	-0.6883881184490533	2.034674505818409	2.03467450581839	0.2568759185172252	-2.89884021107706e-05	0.5081531854194827	0.2088478407889272	-0.3225890507712431	0.01335966535895555	-0.006529180860955267	-0.3078152478464637	0.06325291971366255	0.04420921241354327	0.376193210160302	-25.05798365545206	-15.08674351624675	2.264081922439829	-9.067922638427483	-732.3556812528088	-75.55912776416234	-1.063939140086357	0.5457626120787258	0.750227183368928	0.1617053811486863	-2.585881628666012	0.216209230560967	-0.8569067976652511	2.302127538618051	-2.743406857507543	-2.743406857507541	-0.2661838436296275	0.01679343863414307	-0.8756703370688254	0.08838948970165955	-1.095138786868162e-07	-5.677181934703658e-07	4.301415937304847e-07	-6.335926329910818e-08	-1.249216131335098e-07	-9.9875838776701e-08	-1.272387851001941e-07
0.5700000000000001	-0.1151242068592177	-0.05010713941344719	0.7346308148755162	1.177664360506483	-0.3233835896321304	-0.01674044214659755	-0.8543676783823957	1.215940103945704	1.215940103945711	-0.03996613233722826	-0.1745235164881448	0.2417259491861679	0.05638219851330131	-0.1024443903176629	-0.07909193947369231	-0.5558096460086889	1.749498148819312	0.005447810873979762	0.5243867172049309	-0.6652938578219378	2.006465913384712	2.006465913384699	0.2540112676661043	-1.693241824709759e-05	0.4991674196267595	0.2094429938008041	-0.3283955032892272	0.01326901935723204	-0.006360691671968148	-0.3130984183093195	0.0614366143703961	0.04345759351629252	0.38196706708612	-26.00466721361315	-14.46700860774205	2.019587028465612	-8.456936813141182	-737.7632502130256	-75.27190958042982	-0.7516708816161984	0.5489028389447318	0.7343469315718737	0.2386139898407836	-2.713889104900008	0.1905836256855516	-0.8838160585618955	2.316009121058854	-2.897802209768606	-2.897802209767657	-0.2984712656020869	-0.007157191554320544	-0.9189541833773684	0.03737069429219113	-1.076271676932229e-07	-4.613667988788434e-07	5.274930721418003e-07	-4.276056857683766e-08	-1.208557548974222e-07	-2.516756494860176e-08	-1.274701773879697e-07
